<svg id="visual" viewBox="0 0 900 450" width="900" height="450" xmlns="http://www.w3.org/2000/svg" xmlns:xlink="http://www.w3.org/1999/xlink" version="1.1"><rect x="0" y="0" width="900" height="450" fill="#001220"></rect><path d="M0 285L21.5 291.3C43 297.7 86 310.3 128.8 308.2C171.7 306 214.3 289 257.2 284C300 279 343 286 385.8 295.3C428.7 304.7 471.3 316.3 514.2 319.8C557 323.3 600 318.7 642.8 317C685.7 315.3 728.3 316.7 771.2 309.7C814 302.7 857 287.3 878.5 279.7L900 272L900 451L878.5 451C857 451 814 451 771.2 451C728.3 451 685.7 451 642.8 451C600 451 557 451 514.2 451C471.3 451 428.7 451 385.8 451C343 451 300 451 257.2 451C214.3 451 171.7 451 128.8 451C86 451 43 451 21.5 451L0 451Z" fill="#243ac7"></path><path d="M0 301L21.5 305C43 309 86 317 128.8 324.7C171.7 332.3 214.3 339.7 257.2 339.5C300 339.3 343 331.7 385.8 323.2C428.7 314.7 471.3 305.3 514.2 309.5C557 313.7 600 331.3 642.8 335.2C685.7 339 728.3 329 771.2 325C814 321 857 323 878.5 324L900 325L900 451L878.5 451C857 451 814 451 771.2 451C728.3 451 685.7 451 642.8 451C600 451 557 451 514.2 451C471.3 451 428.7 451 385.8 451C343 451 300 451 257.2 451C214.3 451 171.7 451 128.8 451C86 451 43 451 21.5 451L0 451Z" fill="#38289c"></path><path d="M0 335L21.5 340.8C43 346.7 86 358.3 128.8 359.5C171.7 360.7 214.3 351.3 257.2 347.8C300 344.3 343 346.7 385.8 351.3C428.7 356 471.3 363 514.2 364.3C557 365.7 600 361.3 642.8 354.3C685.7 347.3 728.3 337.7 771.2 336.8C814 336 857 344 878.5 348L900 352L900 451L878.5 451C857 451 814 451 771.2 451C728.3 451 685.7 451 642.8 451C600 451 557 451 514.2 451C471.3 451 428.7 451 385.8 451C343 451 300 451 257.2 451C214.3 451 171.7 451 128.8 451C86 451 43 451 21.5 451L0 451Z" fill="#381875"></path><path d="M0 399L21.5 399.3C43 399.7 86 400.3 128.8 398.2C171.7 396 214.3 391 257.2 391C300 391 343 396 385.8 395C428.7 394 471.3 387 514.2 382.2C557 377.3 600 374.7 642.8 376.3C685.7 378 728.3 384 771.2 384.7C814 385.3 857 380.7 878.5 378.3L900 376L900 451L878.5 451C857 451 814 451 771.2 451C728.3 451 685.7 451 642.8 451C600 451 557 451 514.2 451C471.3 451 428.7 451 385.8 451C343 451 300 451 257.2 451C214.3 451 171.7 451 128.8 451C86 451 43 451 21.5 451L0 451Z" fill="#2f0a52"></path><path d="M0 428L21.5 423.3C43 418.7 86 409.3 128.8 407.3C171.7 405.3 214.3 410.7 257.2 410.5C300 410.3 343 404.7 385.8 403.5C428.7 402.3 471.3 405.7 514.2 409.5C557 413.3 600 417.7 642.8 420.7C685.7 423.7 728.3 425.3 771.2 422.8C814 420.3 857 413.7 878.5 410.3L900 407L900 451L878.5 451C857 451 814 451 771.2 451C728.3 451 685.7 451 642.8 451C600 451 557 451 514.2 451C471.3 451 428.7 451 385.8 451C343 451 300 451 257.2 451C214.3 451 171.7 451 128.8 451C86 451 43 451 21.5 451L0 451Z" fill="#220032"></path></svg>